<?xml version="1.0" standalone="no"?>
<!DOCTYPE svg PUBLIC "-//W3C//DTD SVG 20010904//EN"
 "http://www.w3.org/TR/2001/REC-SVG-20010904/DTD/svg10.dtd">
<svg version="1.0" xmlns="http://www.w3.org/2000/svg"
 width="786.000000pt" height="786.000000pt" viewBox="0 0 786.000000 786.000000"
 preserveAspectRatio="xMidYMid meet">
<metadata>
Created by potrace 1.14, written by Peter Selinger 2001-2017
</metadata>
<g transform="translate(0.000000,786.000000) scale(0.100000,-0.100000)"
fill="#000000" stroke="none">
<path d="M3566 7683 c-8 -8 -92 -20 -206 -29 -41 -3 -84 -9 -95 -14 -11 -5
-40 -11 -65 -14 -52 -5 -97 -14 -125 -26 -11 -4 -33 -13 -48 -19 -15 -6 -43
-11 -60 -11 -18 0 -50 -9 -72 -20 -22 -11 -56 -20 -77 -20 -20 0 -40 -4 -43
-10 -3 -5 -14 -10 -23 -10 -9 0 -39 -11 -66 -25 -27 -14 -59 -25 -72 -25 -12
0 -39 -9 -61 -19 -21 -11 -60 -29 -88 -41 -27 -13 -58 -26 -67 -31 -10 -5 -22
-9 -28 -9 -19 0 -240 -111 -240 -121 0 -5 -8 -12 -17 -15 -43 -14 -109 -50
-121 -66 -7 -10 -21 -18 -30 -18 -10 0 -23 -9 -30 -20 -7 -11 -18 -20 -26 -20
-19 0 -72 -28 -86 -45 -7 -8 -18 -15 -25 -15 -7 0 -20 -11 -29 -25 -9 -14 -22
-25 -29 -25 -7 0 -26 -13 -42 -30 -16 -16 -35 -30 -43 -30 -7 0 -30 -18 -49
-40 -20 -22 -41 -40 -48 -40 -6 0 -33 -22 -60 -50 -27 -27 -55 -50 -61 -50
-16 0 -304 -289 -304 -305 0 -6 -27 -41 -60 -76 -108 -116 -130 -142 -130
-154 0 -6 -13 -24 -30 -40 -16 -16 -30 -34 -30 -40 0 -7 -9 -20 -20 -30 -11
-10 -20 -23 -20 -30 0 -7 -9 -20 -20 -30 -11 -10 -20 -23 -20 -29 0 -7 -9 -19
-20 -29 -11 -9 -20 -23 -20 -30 0 -7 -9 -20 -20 -30 -11 -9 -20 -23 -20 -31 0
-8 -6 -19 -13 -23 -7 -4 -26 -35 -42 -68 -16 -33 -35 -65 -43 -71 -8 -6 -16
-24 -18 -40 -1 -16 -8 -30 -14 -32 -13 -5 -60 -99 -60 -121 0 -9 -9 -31 -20
-49 -11 -18 -20 -39 -20 -46 0 -7 -9 -25 -20 -39 -11 -14 -20 -36 -20 -50 0
-13 -9 -36 -20 -50 -11 -14 -20 -33 -20 -44 0 -10 -9 -38 -20 -62 -11 -24 -20
-52 -20 -62 0 -11 -8 -36 -19 -57 -10 -20 -21 -54 -24 -76 -3 -21 -12 -46 -20
-55 -8 -9 -17 -42 -20 -74 -3 -32 -13 -70 -22 -83 -9 -14 -15 -33 -14 -42 4
-26 -12 -136 -21 -147 -4 -5 -10 -41 -14 -80 -10 -121 -22 -211 -31 -225 -11
-19 -13 -719 -2 -750 13 -36 29 -145 33 -218 1 -35 5 -71 9 -80 14 -34 32
-136 27 -154 -2 -10 2 -28 11 -41 16 -25 67 -206 67 -238 0 -11 6 -30 14 -42
8 -12 19 -40 25 -62 15 -61 41 -136 62 -177 11 -20 19 -44 19 -53 0 -9 9 -28
20 -42 11 -14 20 -32 20 -39 0 -7 9 -28 20 -46 11 -18 20 -42 20 -54 0 -11 9
-29 20 -39 11 -10 20 -26 20 -35 0 -23 45 -113 64 -129 9 -7 16 -18 16 -23 0
-5 9 -21 20 -35 11 -14 20 -34 20 -45 0 -10 6 -21 14 -24 8 -3 17 -16 20 -30
4 -13 11 -24 16 -24 5 0 16 -16 24 -35 8 -19 20 -35 25 -35 6 0 11 -6 11 -13
0 -8 9 -24 20 -37 11 -13 20 -28 20 -34 0 -6 9 -17 20 -24 11 -7 20 -17 20
-23 0 -6 13 -27 30 -46 16 -18 30 -40 30 -47 0 -7 13 -25 30 -39 16 -15 30
-33 30 -41 0 -7 25 -35 55 -62 31 -27 58 -58 61 -69 6 -26 292 -310 321 -319
12 -4 43 -32 69 -62 26 -30 53 -54 60 -54 8 0 26 -13 41 -30 14 -16 32 -30 40
-30 7 0 27 -14 45 -30 17 -17 37 -30 45 -30 7 0 16 -7 19 -15 7 -17 85 -72
121 -86 13 -5 23 -13 23 -18 0 -5 20 -17 44 -26 25 -10 47 -23 50 -31 3 -8 14
-14 24 -14 11 0 31 -9 45 -20 14 -11 30 -20 35 -20 5 0 15 -7 22 -15 15 -18
109 -65 130 -65 9 0 25 -9 35 -20 10 -11 28 -20 39 -20 12 0 59 -21 106 -46
87 -47 153 -74 181 -74 9 0 27 -8 40 -19 13 -10 35 -20 49 -23 90 -20 198 -52
218 -64 13 -8 31 -14 40 -13 22 4 94 -11 107 -21 6 -4 33 -10 60 -13 28 -4 70
-11 95 -17 25 -7 77 -16 115 -20 39 -5 102 -15 140 -21 90 -15 842 -24 870
-10 21 10 70 17 190 27 39 3 79 9 90 13 34 14 114 31 144 31 16 0 51 9 77 20
26 11 52 19 58 17 6 -2 31 4 56 13 26 10 63 21 83 24 20 3 45 10 55 16 35 20
264 100 286 100 13 0 31 9 41 20 10 11 22 20 27 20 14 0 351 169 368 185 9 8
41 26 73 40 31 15 57 30 57 35 0 4 14 13 30 19 17 5 30 15 30 20 0 6 9 11 20
11 11 0 25 9 32 20 7 11 21 20 31 20 10 0 20 6 23 14 3 8 58 54 122 103 64 50
163 131 219 182 56 50 106 91 112 91 6 0 17 12 25 28 8 15 60 74 116 131 55
57 100 105 100 107 0 2 41 56 91 121 96 123 219 302 284 413 177 302 325 665
405 990 12 47 25 101 30 120 5 19 14 67 20 105 7 39 16 86 20 105 5 19 14 82
19 140 6 58 14 139 18 180 4 41 8 158 8 260 0 610 -135 1176 -411 1720 -118
233 -235 417 -396 623 -48 62 -88 118 -88 125 0 6 -5 12 -10 12 -6 0 -34 25
-63 56 -80 87 -143 151 -248 250 -53 50 -98 95 -100 100 -2 5 -16 16 -31 24
-44 25 -298 220 -298 229 0 5 -12 12 -26 15 -14 4 -38 15 -53 25 -134 94 -170
115 -336 197 -77 38 -146 74 -153 81 -7 7 -24 13 -38 13 -14 0 -27 7 -30 15
-4 8 -17 15 -30 15 -13 0 -43 9 -67 19 -23 11 -59 24 -79 31 -21 6 -40 16 -43
21 -4 5 -17 9 -31 9 -14 0 -42 9 -64 20 -22 11 -48 20 -59 20 -12 0 -44 9 -73
20 -29 11 -62 20 -72 20 -21 0 -80 17 -108 31 -10 5 -32 9 -49 9 -32 0 -96 15
-134 31 -11 4 -49 10 -85 13 -147 12 -195 19 -204 27 -12 11 -749 12 -760 2z"/>
</g>
</svg>
